# xmcd CD database file
#
# Track frame offsets:
#	150
#	43512
#	81565
#	113520
#	151925
#	185722
#	226647
#	249925
#
# Disc length: 3697 seconds
#
# Revision: 1
# Processed by: cddbd v1.5PL3 Copyright (c) Steve Scherf et al.
# Submitted via: CDex 1.51
#
DISCID=560e6f08
DTITLE=Carl Naud - Ouverture
DYEAR=1900
DGENRE=Blues
TTITLE0=Lennies Pennies
TTITLE1=Triple Play
TTITLE2=Falling Grace
TTITLE3=Tango for Django
TTITLE4=Quasimodo
TTITLE5=Blue in Green
TTITLE6=Jenny's Calls
TTITLE7=Sunny
EXTD=
EXTT0=
EXTT1=
EXTT2=
EXTT3=
EXTT4=
EXTT5=
EXTT6=
EXTT7=
PLAYORDER=
